<svg xmlns="http://www.w3.org/2000/svg" width="30" height="31" viewBox="0 0 30 31" fill="none">
  <path d="M5.71339 18.1594C5.52439 20.3599 7.26589 22.2499 9.47989 22.2499H23.8573C25.8013 22.2499 27.5023 20.6569 27.6508 18.7264L28.3798 8.60136C28.5418 6.36036 26.8408 4.53784 24.5863 4.53784H7.15791" stroke="#7B87C2" stroke-width="3" stroke-miterlimit="10" stroke-linecap="round" stroke-linejoin="round"/>
  <path d="M2 2H4.34901C5.80701 2 6.9545 3.2555 6.833 4.7L6.158 12.8675" stroke="#7B87C2" stroke-width="3" stroke-miterlimit="10" stroke-linecap="round" stroke-linejoin="round"/>
  <path d="M21.2375 29C22.1696 29 22.925 28.2445 22.925 27.3125C22.925 26.3805 22.1696 25.625 21.2375 25.625C20.3055 25.625 19.55 26.3805 19.55 27.3125C19.55 28.2445 20.3055 29 21.2375 29Z" stroke="#7B87C2" stroke-width="3" stroke-miterlimit="10" stroke-linecap="round" stroke-linejoin="round"/>
  <path d="M10.4375 29C11.3695 29 12.125 28.2445 12.125 27.3125C12.125 26.3805 11.3695 25.625 10.4375 25.625C9.50551 25.625 8.75 26.3805 8.75 27.3125C8.75 28.2445 9.50551 29 10.4375 29Z" stroke="#7B87C2" stroke-width="3" stroke-miterlimit="10" stroke-linecap="round" stroke-linejoin="round"/>
  <path d="M11.45 10.1001H27.65" stroke="#7B87C2" stroke-width="3" stroke-miterlimit="10" stroke-linecap="round" stroke-linejoin="round"/>
</svg>