<svg xmlns="http://www.w3.org/2000/svg" xmlns:xlink="http://www.w3.org/1999/xlink" width="1080" zoomAndPan="magnify" viewBox="0 0 810 809.999993" height="1080" preserveAspectRatio="xMidYMid meet" version="1.0"><defs><clipPath id="942f223600"><path d="M 51 0 L 778.394531 0 L 778.394531 793 L 51 793 Z M 51 0 " clip-rule="nonzero"/></clipPath></defs><g clip-path="url(#942f223600)"><path fill="#f0e968" d="M 772.460938 497.746094 L 684.191406 448.734375 C 686.050781 435.761719 687.089844 422.53125 687.347656 409.09375 L 786.621094 382.375 L 684.332031 358.699219 C 683.128906 350.109375 681.574219 341.644531 679.703125 333.300781 L 772.472656 281.789062 L 664.160156 283.582031 C 659.824219 272.914062 654.976562 262.503906 649.550781 252.441406 L 727.03125 174.8125 L 620.011719 207.441406 C 615.6875 201.917969 611.226562 196.519531 606.558594 191.300781 L 664.453125 94.777344 L 566.375 153.558594 C 558.511719 147.351562 550.355469 141.507812 541.914062 136.046875 L 571.582031 24.839844 L 492.253906 109.761719 C 486.726562 107.441406 481.105469 105.328125 475.425781 103.316406 L 477.347656 -13.199219 L 420.402344 89.277344 C 411.230469 87.800781 401.90625 86.75 392.480469 86.070312 L 335.457031 86.957031 C 329.671875 87.570312 323.9375 88.351562 318.257812 89.277344 L 263.234375 103.328125 C 254.113281 106.558594 245.199219 110.199219 236.480469 114.210938 L 187.792969 142.058594 C 182.507812 145.738281 177.339844 149.582031 172.296875 153.570312 L 132.113281 191.300781 C 124.96875 199.289062 118.25 207.632812 111.9375 216.3125 L 84.160156 262.183594 C 80.695312 269.183594 77.488281 276.324219 74.527344 283.59375 L 58.980469 333.3125 C 56.289062 345.3125 54.195312 357.554688 52.902344 370.03125 L 51.644531 420.210938 C 52.15625 429.839844 53.132812 439.351562 54.480469 448.734375 L 65.023438 496.105469 C 69.214844 509.824219 74.347656 523.121094 80.273438 535.992188 L 102.910156 576.902344 C 109.039062 586.285156 115.621094 595.335938 122.6875 603.992188 L 153.828125 637.042969 C 165.371094 647.667969 177.671875 657.476562 190.691406 666.324219 L 228.898438 688.542969 C 239.863281 693.953125 251.191406 698.734375 262.824219 702.863281 L 304.738281 714.617188 C 320.617188 717.886719 336.917969 719.976562 353.566406 720.796875 L 396.878906 719.9375 C 409.460938 718.863281 421.851562 717.132812 433.972656 714.632812 L 477.375 792.734375 L 475.886719 702.886719 C 491.214844 697.4375 506.027344 690.886719 520.175781 683.257812 L 584.40625 747.308594 L 557.625 659.527344 C 567.128906 652.542969 576.238281 645.042969 584.894531 637.066406 L 664.480469 684.757812 L 616.035156 604.003906 C 625.5 592.402344 634.171875 580.144531 641.945312 567.273438 L 734.445312 591.925781 L 663.15625 525.386719 C 667.132812 515.851562 670.648438 506.082031 673.699219 496.105469 Z M 772.460938 497.746094 " fill-opacity="1" fill-rule="nonzero"/></g><path fill="#7b87c2" d="M 666.878906 516.785156 C 659.453125 531.710938 650.511719 546.15625 639.957031 559.875 C 553.238281 672.542969 392.503906 694.644531 278.625 610.566406 C 366.445312 652.003906 473.527344 630.757812 538.386719 554.734375 C 478.941406 600.003906 394.351562 601.902344 332.289062 554.171875 C 321.386719 545.785156 311.832031 536.324219 303.570312 526.066406 C 304.855469 527.132812 306.035156 528.273438 307.367188 529.296875 C 365.121094 573.707031 447.953125 562.914062 492.394531 505.195312 C 536.835938 447.480469 526.023438 364.671875 468.28125 320.25 C 411.15625 276.3125 329.53125 286.480469 284.769531 342.582031 C 289.410156 333.542969 294.886719 324.773438 301.300781 316.441406 C 358.414062 242.238281 464.882812 228.363281 539.117188 285.453125 C 549.300781 293.289062 558.320312 302.082031 566.195312 311.558594 C 551.917969 284.070312 531.601562 259.171875 505.425781 239.042969 C 415.605469 169.96875 289.230469 181.351562 213.007812 261.890625 C 217.265625 255.160156 221.832031 248.542969 226.78125 242.109375 C 314.5625 128.058594 478.222656 106.738281 592.308594 194.480469 C 614.777344 211.761719 633.582031 232.007812 648.730469 254.199219 C 627.71875 214.570312 598.167969 178.660156 560.28125 149.519531 C 418.722656 40.648438 215.675781 67.109375 106.757812 208.609375 C -2.160156 350.109375 24.3125 553.066406 165.871094 661.9375 C 307.429688 770.808594 510.476562 744.347656 619.394531 602.847656 C 640.058594 576.027344 655.820312 546.976562 666.878906 516.785156 Z M 666.878906 516.785156 " fill-opacity="1" fill-rule="nonzero"/><path fill="#f5f4f5" d="M 485.882812 328.957031 C 487.429688 330.503906 488.9375 332.085938 490.40625 333.703125 C 491.875 335.324219 493.300781 336.976562 494.6875 338.667969 C 496.078125 340.359375 497.421875 342.078125 498.722656 343.835938 C 500.027344 345.589844 501.285156 347.378906 502.5 349.195312 C 503.714844 351.011719 504.882812 352.859375 506.007812 354.734375 C 507.132812 356.605469 508.210938 358.507812 509.242188 360.4375 C 510.273438 362.363281 511.253906 364.316406 512.1875 366.292969 C 513.125 368.265625 514.011719 370.265625 514.847656 372.285156 C 515.683594 374.304688 516.46875 376.339844 517.207031 378.398438 C 517.945312 380.457031 518.628906 382.53125 519.265625 384.625 C 519.898438 386.714844 520.480469 388.820312 521.011719 390.941406 C 521.542969 393.0625 522.023438 395.191406 522.449219 397.335938 C 522.878906 399.480469 523.25 401.632812 523.570312 403.796875 C 523.894531 405.957031 524.160156 408.125 524.375 410.300781 C 524.589844 412.476562 524.75 414.65625 524.855469 416.835938 C 524.964844 419.019531 525.019531 421.207031 525.019531 423.390625 C 525.019531 425.578125 524.964844 427.761719 524.855469 429.945312 C 524.75 432.128906 524.589844 434.304688 524.375 436.480469 C 524.160156 438.65625 523.894531 440.824219 523.574219 442.988281 C 523.25 445.148438 522.878906 447.300781 522.453125 449.445312 C 522.023438 451.589844 521.546875 453.722656 521.015625 455.839844 C 520.484375 457.960938 519.902344 460.066406 519.265625 462.160156 C 518.632812 464.25 517.945312 466.324219 517.207031 468.382812 C 516.472656 470.441406 515.6875 472.480469 514.847656 474.5 C 514.011719 476.519531 513.125 478.515625 512.191406 480.492188 C 511.257812 482.46875 510.273438 484.417969 509.242188 486.347656 C 508.210938 488.273438 507.136719 490.175781 506.011719 492.050781 C 504.886719 493.925781 503.71875 495.769531 502.503906 497.589844 C 501.289062 499.40625 500.027344 501.191406 498.726562 502.945312 C 497.425781 504.703125 496.078125 506.425781 494.691406 508.113281 C 493.304688 509.804688 491.878906 511.457031 490.410156 513.078125 C 488.941406 514.699219 487.433594 516.28125 485.886719 517.824219 C 484.339844 519.371094 482.757812 520.878906 481.136719 522.347656 C 479.519531 523.8125 477.863281 525.242188 476.171875 526.628906 C 474.480469 528.015625 472.757812 529.359375 471.003906 530.660156 C 469.246094 531.960938 467.460938 533.222656 465.640625 534.433594 C 463.824219 535.648438 461.976562 536.820312 460.101562 537.941406 C 458.226562 539.066406 456.324219 540.144531 454.394531 541.171875 C 452.464844 542.203125 450.515625 543.1875 448.539062 544.121094 C 446.5625 545.054688 444.5625 545.941406 442.542969 546.777344 C 440.523438 547.613281 438.484375 548.398438 436.425781 549.136719 C 434.367188 549.871094 432.289062 550.558594 430.195312 551.191406 C 428.105469 551.828125 426 552.410156 423.878906 552.941406 C 421.757812 553.472656 419.625 553.949219 417.480469 554.378906 C 415.335938 554.804688 413.179688 555.175781 411.015625 555.496094 C 408.855469 555.820312 406.683594 556.085938 404.507812 556.300781 C 402.332031 556.515625 400.152344 556.675781 397.96875 556.78125 C 395.785156 556.890625 393.601562 556.945312 391.414062 556.945312 C 389.226562 556.945312 387.042969 556.890625 384.855469 556.78125 C 382.671875 556.675781 380.492188 556.515625 378.316406 556.300781 C 376.140625 556.085938 373.972656 555.820312 371.808594 555.5 C 369.644531 555.179688 367.492188 554.804688 365.347656 554.378906 C 363.203125 553.953125 361.070312 553.472656 358.949219 552.941406 C 356.828125 552.410156 354.722656 551.828125 352.628906 551.195312 C 350.535156 550.558594 348.460938 549.875 346.402344 549.136719 C 344.34375 548.402344 342.304688 547.613281 340.285156 546.777344 C 338.261719 545.941406 336.265625 545.058594 334.289062 544.121094 C 332.3125 543.1875 330.359375 542.207031 328.429688 541.175781 C 326.503906 540.144531 324.601562 539.066406 322.726562 537.945312 C 320.847656 536.820312 319.003906 535.652344 317.183594 534.4375 C 315.367188 533.222656 313.578125 531.964844 311.824219 530.664062 C 310.066406 529.363281 308.34375 528.015625 306.652344 526.628906 C 304.960938 525.242188 303.308594 523.816406 301.6875 522.347656 C 300.066406 520.882812 298.484375 519.375 296.9375 517.828125 C 295.390625 516.285156 293.882812 514.703125 292.414062 513.082031 C 290.949219 511.460938 289.519531 509.808594 288.132812 508.117188 C 286.746094 506.429688 285.402344 504.707031 284.097656 502.949219 C 282.796875 501.195312 281.535156 499.410156 280.320312 497.589844 C 279.105469 495.773438 277.9375 493.929688 276.8125 492.054688 C 275.6875 490.179688 274.613281 488.277344 273.582031 486.351562 C 272.550781 484.421875 271.566406 482.472656 270.632812 480.496094 C 269.699219 478.519531 268.8125 476.523438 267.976562 474.503906 C 267.136719 472.484375 266.351562 470.445312 265.613281 468.386719 C 264.878906 466.328125 264.191406 464.253906 263.558594 462.164062 C 262.921875 460.070312 262.339844 457.964844 261.808594 455.84375 C 261.277344 453.726562 260.796875 451.59375 260.371094 449.449219 C 259.945312 447.304688 259.570312 445.152344 259.25 442.992188 C 258.929688 440.828125 258.660156 438.660156 258.445312 436.484375 C 258.234375 434.3125 258.070312 432.132812 257.964844 429.949219 C 257.855469 427.765625 257.804688 425.582031 257.804688 423.394531 C 257.804688 421.210938 257.855469 419.027344 257.964844 416.84375 C 258.070312 414.660156 258.230469 412.480469 258.445312 410.304688 C 258.660156 408.128906 258.929688 405.960938 259.25 403.800781 C 259.570312 401.636719 259.945312 399.484375 260.371094 397.339844 C 260.796875 395.199219 261.277344 393.066406 261.808594 390.945312 C 262.339844 388.824219 262.921875 386.71875 263.554688 384.628906 C 264.191406 382.535156 264.875 380.460938 265.613281 378.402344 C 266.347656 376.347656 267.136719 374.308594 267.972656 372.289062 C 268.808594 370.269531 269.695312 368.269531 270.628906 366.296875 C 271.566406 364.320312 272.546875 362.367188 273.578125 360.441406 C 274.609375 358.511719 275.6875 356.613281 276.8125 354.738281 C 277.933594 352.863281 279.105469 351.015625 280.320312 349.199219 C 281.535156 347.382812 282.792969 345.59375 284.09375 343.839844 C 285.398438 342.082031 286.742188 340.359375 288.128906 338.671875 C 289.515625 336.980469 290.945312 335.328125 292.414062 333.707031 C 293.882812 332.089844 295.386719 330.507812 296.933594 328.960938 C 298.480469 327.414062 300.0625 325.910156 301.683594 324.441406 C 303.304688 322.972656 304.960938 321.546875 306.648438 320.160156 C 308.339844 318.773438 310.0625 317.429688 311.820312 316.125 C 313.574219 314.824219 315.363281 313.566406 317.179688 312.351562 C 319 311.136719 320.84375 309.96875 322.722656 308.84375 C 324.597656 307.722656 326.5 306.644531 328.425781 305.613281 C 330.355469 304.582031 332.308594 303.601562 334.285156 302.667969 C 336.261719 301.730469 338.257812 300.847656 340.28125 300.007812 C 342.300781 299.171875 344.339844 298.386719 346.398438 297.652344 C 348.457031 296.914062 350.53125 296.230469 352.625 295.59375 C 354.71875 294.960938 356.824219 294.375 358.945312 293.847656 C 361.066406 293.316406 363.199219 292.835938 365.34375 292.410156 C 367.488281 291.984375 369.640625 291.609375 371.804688 291.289062 C 373.96875 290.96875 376.136719 290.699219 378.3125 290.484375 C 380.488281 290.273438 382.667969 290.109375 384.851562 290.003906 C 387.035156 289.898438 389.222656 289.84375 391.410156 289.84375 C 393.59375 289.84375 395.78125 289.894531 397.964844 290.003906 C 400.148438 290.109375 402.328125 290.273438 404.503906 290.484375 C 406.679688 290.699219 408.851562 290.96875 411.011719 291.289062 C 413.175781 291.609375 415.328125 291.980469 417.472656 292.410156 C 419.617188 292.835938 421.75 293.3125 423.871094 293.84375 C 425.992188 294.375 428.101562 294.957031 430.191406 295.59375 C 432.285156 296.226562 434.359375 296.914062 436.417969 297.648438 C 438.476562 298.386719 440.519531 299.171875 442.539062 300.007812 C 444.558594 300.84375 446.554688 301.730469 448.535156 302.664062 C 450.511719 303.597656 452.460938 304.582031 454.390625 305.609375 C 456.320312 306.640625 458.222656 307.71875 460.097656 308.84375 C 461.972656 309.964844 463.820312 311.132812 465.636719 312.347656 C 467.457031 313.5625 469.242188 314.820312 471 316.125 C 472.753906 317.425781 474.476562 318.769531 476.167969 320.15625 C 477.859375 321.542969 479.515625 322.96875 481.132812 324.4375 C 482.753906 325.90625 484.335938 327.410156 485.882812 328.957031 Z M 485.882812 328.957031 " fill-opacity="1" fill-rule="nonzero"/></svg>